<svg xmlns="http://www.w3.org/2000/svg" xmlns:xlink="http://www.w3.org/1999/xlink" width="500" zoomAndPan="magnify" viewBox="0 0 375 374.999991" height="500" preserveAspectRatio="xMidYMid meet" version="1.0"><defs><g/><clipPath id="101141f94d"><path d="M 9.875 175 L 36 175 L 36 184 L 9.875 184 Z M 9.875 175 " clip-rule="nonzero"/></clipPath><clipPath id="1692c5c215"><path d="M 272 163 L 321 163 L 321 203.066406 L 272 203.066406 Z M 272 163 " clip-rule="nonzero"/></clipPath><clipPath id="8ca31613e9"><path d="M 55 163 L 105 163 L 105 203.066406 L 55 203.066406 Z M 55 163 " clip-rule="nonzero"/></clipPath></defs><rect x="-37.5" width="450" fill="#ffffff" y="-37.499999" height="449.999989" fill-opacity="1"/><rect x="-37.5" width="450" fill="#ffffff" y="-37.499999" height="449.999989" fill-opacity="1"/><rect x="-37.5" width="450" fill="#000000" y="-37.499999" height="449.999989" fill-opacity="1"/><g clip-path="url(#101141f94d)"><path fill="#ff1616" d="M 14.71875 175.34375 L 28.5 175.34375 C 28.5 175.34375 33.027344 176.285156 35.058594 183.386719 L 9.941406 183.386719 C 9.941406 183.386719 10.414062 178.929688 14.71875 175.34375 Z M 14.71875 175.34375 " fill-opacity="1" fill-rule="nonzero"/></g><g clip-path="url(#1692c5c215)"><path fill="#ffffff" d="M 299.824219 163.574219 C 301.828125 163.582031 303.8125 163.804688 305.769531 164.242188 C 307.726562 164.675781 309.613281 165.3125 311.4375 166.148438 C 313.257812 166.988281 314.96875 168.007812 316.574219 169.214844 C 318.175781 170.417969 319.632812 171.777344 320.945312 173.292969 C 315.863281 168.535156 309.808594 167.308594 302.71875 167.167969 C 286.488281 166.847656 274.640625 178.796875 273.929688 192.777344 C 273.742188 196.550781 273.621094 200.230469 274.574219 203.066406 C 272.875 199.359375 272.019531 195.46875 272.003906 191.390625 C 271.839844 174.871094 284.257812 163.375 299.824219 163.574219 Z M 299.824219 163.574219 " fill-opacity="1" fill-rule="nonzero"/></g><g clip-path="url(#8ca31613e9)"><path fill="#ffffff" d="M 83.433594 163.574219 C 85.4375 163.582031 87.421875 163.804688 89.382812 164.238281 C 91.339844 164.671875 93.230469 165.304688 95.054688 166.144531 C 96.878906 166.984375 98.59375 168.003906 100.195312 169.210938 C 101.800781 170.414062 103.257812 171.777344 104.574219 173.292969 C 99.492188 168.535156 93.859375 167.296875 86.347656 167.167969 C 70.117188 166.886719 58.273438 178.796875 57.5625 192.777344 C 57.375 196.550781 57.25 200.230469 58.199219 203.066406 C 56.503906 199.359375 55.640625 195.46875 55.617188 191.390625 C 55.445312 174.871094 67.871094 163.375 83.433594 163.574219 Z M 83.433594 163.574219 " fill-opacity="1" fill-rule="nonzero"/></g><path fill="#ffffff" d="M 151.484375 157.261719 L 152.984375 157.261719 C 153.628906 157.261719 154.195312 157.472656 154.683594 157.894531 L 155.347656 158.472656 L 165.628906 158.472656 C 167.441406 158.472656 167.515625 159.679688 167.515625 159.679688 C 167.515625 159.679688 167.421875 160.890625 165.628906 160.890625 L 155.347656 160.890625 L 154.683594 161.464844 C 154.195312 161.886719 153.628906 162.101562 152.984375 162.101562 L 151.484375 162.101562 C 151.183594 162.109375 150.894531 162.0625 150.613281 161.96875 C 150.332031 161.875 150.074219 161.734375 149.84375 161.546875 C 149.609375 161.359375 149.417969 161.136719 149.265625 160.882812 C 149.113281 160.628906 149.007812 160.355469 148.953125 160.0625 C 148.921875 159.808594 148.921875 159.558594 148.953125 159.308594 C 149.007812 159.015625 149.109375 158.738281 149.261719 158.484375 C 149.417969 158.226562 149.609375 158.007812 149.839844 157.820312 C 150.074219 157.632812 150.328125 157.488281 150.613281 157.394531 C 150.894531 157.296875 151.183594 157.253906 151.484375 157.261719 Z M 151.484375 157.261719 " fill-opacity="1" fill-rule="nonzero"/><path fill="#ffffff" d="M 353.433594 176.058594 C 353.433594 176.058594 345.441406 161.59375 334.371094 158.128906 C 323.988281 154.867188 247.527344 152.203125 247.527344 152.203125 L 239.125 154.261719 C 237.304688 154.851562 235.441406 155.144531 233.527344 155.132812 C 215.199219 155.035156 114.816406 154.390625 99.734375 152.171875 C 88.070312 150.453125 90.3125 143.300781 90.3125 143.300781 C 90.789062 150.023438 103.703125 150.039062 103.703125 150.039062 L 144.664062 150.039062 L 136.167969 126.976562 C 132.753906 127.425781 130.695312 127.734375 130.695312 127.734375 C 110.445312 132.199219 92 141.074219 92 141.074219 C 107.613281 131.214844 130.148438 126.007812 130.148438 126.007812 C 158.605469 119.667969 190.890625 117.566406 199.914062 122.230469 C 207.664062 126.226562 226.410156 145.925781 230.273438 150.03125 L 235.828125 150.03125 L 243.171875 148.375 C 243.171875 148.375 326.316406 151.933594 336.402344 156.25 C 339.082031 157.382812 341.535156 159.328125 343.703125 161.558594 L 343.199219 160.894531 C 346.082031 163.707031 348.660156 166.777344 350.925781 170.105469 C 349.757812 167.058594 348.257812 164.183594 346.417969 161.488281 C 345.367188 160.136719 344.554688 159.199219 344.179688 158.609375 C 343.0625 156.871094 344.273438 155.796875 344.273438 155.796875 C 357.160156 157.773438 354.042969 175.265625 354.042969 175.265625 Z M 197.703125 126.140625 C 186.152344 121.472656 154.054688 124.71875 138.855469 126.613281 L 148.617188 150.027344 L 226.332031 150.027344 C 205.957031 129.210938 197.703125 126.140625 197.703125 126.140625 Z M 197.703125 126.140625 " fill-opacity="1" fill-rule="nonzero"/><path fill="#ffffff" d="M 340.78125 178.851562 L 359.765625 178.851562 C 359.765625 178.851562 363.671875 179.417969 364.789062 180.894531 L 334.457031 180.894531 C 334.457031 180.894531 327.472656 165.101562 308.128906 161.464844 C 308.128906 161.464844 330.601562 159.164062 340.78125 178.851562 Z M 340.78125 178.851562 " fill-opacity="1" fill-rule="nonzero"/><path fill="#ffffff" d="M 141.25 185.882812 L 145.058594 190.484375 C 145.785156 191.359375 146.59375 192.148438 147.492188 192.851562 C 148.390625 193.550781 149.351562 194.148438 150.378906 194.640625 C 151.402344 195.132812 152.472656 195.511719 153.578125 195.773438 C 154.6875 196.035156 155.808594 196.171875 156.949219 196.191406 L 265.886719 198.050781 L 265.410156 199.910156 L 151.859375 198.347656 C 150.613281 198.332031 149.382812 198.179688 148.167969 197.894531 C 146.953125 197.609375 145.78125 197.195312 144.660156 196.65625 C 143.535156 196.113281 142.480469 195.460938 141.5 194.691406 C 140.515625 193.921875 139.628906 193.054688 138.835938 192.089844 L 135.007812 187.457031 C 134.339844 186.636719 133.527344 185.996094 132.578125 185.535156 C 131.625 185.070312 130.621094 184.832031 129.5625 184.8125 L 126.003906 184.769531 L 125.109375 182.789062 L 130.789062 182.589844 C 134.914062 182.4375 138.878906 182.914062 141.25 185.882812 Z M 141.25 185.882812 " fill-opacity="1" fill-rule="nonzero"/><path fill="#ffffff" d="M 201.425781 112.113281 C 206.730469 112.679688 207.011719 115.464844 207.011719 115.464844 C 232.828125 130.128906 245.039062 146.167969 245.039062 146.167969 C 221.730469 126.003906 206.03125 119.648438 206.03125 119.648438 C 201.425781 117.761719 199.355469 117.285156 199.355469 117.285156 C 199.355469 117.285156 179.558594 111.039062 129.011719 121.75 C 73.375 133.542969 17.917969 173.703125 17.917969 173.703125 L 16.125 173.703125 C 114.195312 97.316406 196.125 111.554688 201.425781 112.113281 Z M 201.425781 112.113281 " fill-opacity="1" fill-rule="nonzero"/><g fill="#ff1616" fill-opacity="1"><g transform="translate(5.013518, 246.950024)"><g><path d="M 29.753906 -18.792969 L 29.753906 -13.511719 L 44.425781 -13.511719 C 42.570312 -7.597656 37.058594 -5.21875 27.199219 -5.21875 C 14.558594 -5.21875 10.671875 -9.976562 10.671875 -16.878906 L 10.671875 -18.09375 C 10.671875 -24.996094 15.601562 -29.753906 28.1875 -29.753906 C 40.019531 -29.753906 43.207031 -25.113281 43.671875 -22.675781 L 50.109375 -22.675781 C 49.878906 -27.839844 45.179688 -35.550781 28.1875 -35.550781 C 10.265625 -35.550781 4.640625 -27.257812 4.640625 -18.09375 L 4.640625 -16.878906 C 4.640625 -7.714844 9.28125 0.578125 27.199219 0.578125 C 36.945312 0.578125 42.511719 -1.507812 45.410156 -5.566406 L 45.410156 -5.277344 L 46.28125 0 L 51.039062 0 L 51.039062 -18.792969 Z M 29.753906 -18.792969 "/></g></g></g><g fill="#ffffff" fill-opacity="1"><g transform="translate(66.021327, 246.950024)"><g><path d="M 21.980469 0.578125 C 32.59375 0.578125 38.917969 -3.539062 39.613281 -10.382812 L 36.539062 -10.382812 C 35.84375 -4.8125 30.390625 -2.089844 21.980469 -2.089844 C 12.179688 -2.089844 6.667969 -5.742188 7.074219 -14.035156 C 12.179688 -13.164062 17.921875 -12.644531 22.5625 -12.644531 C 31.492188 -12.644531 38.917969 -14.847656 38.917969 -20.183594 L 38.917969 -21.402344 C 38.917969 -26.445312 32.59375 -29.519531 22.617188 -29.519531 C 9.742188 -29.519531 4.058594 -24.300781 4.058594 -15.542969 L 4.058594 -13.398438 C 4.058594 -4.640625 9.742188 0.578125 21.980469 0.578125 Z M 22.617188 -15.3125 C 17.746094 -15.3125 11.714844 -15.890625 7.074219 -16.703125 C 7.480469 -23.140625 11.949219 -26.792969 22.617188 -26.792969 C 31.78125 -26.792969 35.902344 -24.53125 35.902344 -21.285156 L 35.902344 -20.355469 C 35.902344 -16.472656 29.8125 -15.3125 22.617188 -15.3125 Z M 22.617188 -15.3125 "/></g></g></g><g fill="#ffffff" fill-opacity="1"><g transform="translate(114.680389, 246.950024)"><g><path d="M 22.5625 -2.957031 C 20.761719 -2.492188 19.082031 -2.203125 17.398438 -2.203125 C 11.195312 -2.203125 10.148438 -5.859375 10.148438 -9.976562 L 10.148438 -26.332031 L 22.386719 -26.332031 L 22.386719 -29 L 10.148438 -29 L 10.148438 -34.796875 L 7.25 -34.796875 L 7.25 -29 L 2.089844 -29 L 2.089844 -26.332031 L 7.25 -26.332031 L 7.25 -9.976562 C 7.25 -6.265625 7.421875 0.578125 17.398438 0.578125 C 19.371094 0.578125 21.34375 0.230469 23.257812 -0.464844 Z M 22.5625 -2.957031 "/></g></g></g><g fill="#ff1616" fill-opacity="1"><g transform="translate(144.31429, 246.950024)"><g><path d="M 39.613281 -34.796875 L -0.175781 -34.796875 L -0.175781 -29.113281 L 16.761719 -29.113281 L 16.761719 0 L 22.675781 0 L 22.675781 -29.113281 L 39.613281 -29.113281 Z M 39.613281 -34.796875 "/></g></g></g><g fill="#ffffff" fill-opacity="1"><g transform="translate(188.681475, 246.950024)"><g><path d="M 25.402344 -29.519531 C 16.992188 -29.519531 11.714844 -26.332031 9.105469 -21.054688 L 9.105469 -38.277344 L 6.207031 -38.277344 L 6.207031 0 L 9.105469 0 L 9.105469 -11.65625 C 9.105469 -20.472656 14.558594 -26.792969 25.402344 -26.792969 C 34.390625 -26.792969 39.148438 -23.316406 39.148438 -15.195312 L 39.148438 0 L 42.164062 0 L 42.164062 -15.71875 C 42.164062 -24.476562 36.480469 -29.519531 25.402344 -29.519531 Z M 25.402344 -29.519531 "/></g></g></g><g fill="#ffffff" fill-opacity="1"><g transform="translate(241.400271, 246.950024)"><g><path d="M 21.980469 0.578125 C 32.59375 0.578125 38.917969 -3.539062 39.613281 -10.382812 L 36.539062 -10.382812 C 35.84375 -4.8125 30.390625 -2.089844 21.980469 -2.089844 C 12.179688 -2.089844 6.667969 -5.742188 7.074219 -14.035156 C 12.179688 -13.164062 17.921875 -12.644531 22.5625 -12.644531 C 31.492188 -12.644531 38.917969 -14.847656 38.917969 -20.183594 L 38.917969 -21.402344 C 38.917969 -26.445312 32.59375 -29.519531 22.617188 -29.519531 C 9.742188 -29.519531 4.058594 -24.300781 4.058594 -15.542969 L 4.058594 -13.398438 C 4.058594 -4.640625 9.742188 0.578125 21.980469 0.578125 Z M 22.617188 -15.3125 C 17.746094 -15.3125 11.714844 -15.890625 7.074219 -16.703125 C 7.480469 -23.140625 11.949219 -26.792969 22.617188 -26.792969 C 31.78125 -26.792969 35.902344 -24.53125 35.902344 -21.285156 L 35.902344 -20.355469 C 35.902344 -16.472656 29.8125 -15.3125 22.617188 -15.3125 Z M 22.617188 -15.3125 "/></g></g></g><g fill="#ffffff" fill-opacity="1"><g transform="translate(290.059333, 246.950024)"><g><path d="M 24.996094 -29.578125 C 16.992188 -29.347656 11.714844 -26.15625 9.105469 -20.878906 L 9.105469 -29 L 6.207031 -29 L 6.207031 0 L 9.105469 0 L 9.105469 -11.65625 C 9.105469 -20.472656 14.558594 -26.792969 25.691406 -26.792969 C 27.492188 -26.792969 28.707031 -26.738281 29.925781 -26.621094 L 30.101562 -29.347656 C 28.941406 -29.519531 27.433594 -29.636719 24.996094 -29.578125 Z M 24.996094 -29.578125 "/></g></g></g><g fill="#ffffff" fill-opacity="1"><g transform="translate(326.307222, 246.950024)"><g><path d="M 21.980469 0.578125 C 32.59375 0.578125 38.917969 -3.539062 39.613281 -10.382812 L 36.539062 -10.382812 C 35.84375 -4.8125 30.390625 -2.089844 21.980469 -2.089844 C 12.179688 -2.089844 6.667969 -5.742188 7.074219 -14.035156 C 12.179688 -13.164062 17.921875 -12.644531 22.5625 -12.644531 C 31.492188 -12.644531 38.917969 -14.847656 38.917969 -20.183594 L 38.917969 -21.402344 C 38.917969 -26.445312 32.59375 -29.519531 22.617188 -29.519531 C 9.742188 -29.519531 4.058594 -24.300781 4.058594 -15.542969 L 4.058594 -13.398438 C 4.058594 -4.640625 9.742188 0.578125 21.980469 0.578125 Z M 22.617188 -15.3125 C 17.746094 -15.3125 11.714844 -15.890625 7.074219 -16.703125 C 7.480469 -23.140625 11.949219 -26.792969 22.617188 -26.792969 C 31.78125 -26.792969 35.902344 -24.53125 35.902344 -21.285156 L 35.902344 -20.355469 C 35.902344 -16.472656 29.8125 -15.3125 22.617188 -15.3125 Z M 22.617188 -15.3125 "/></g></g></g></svg>